<svg width="28" height="28" viewBox="0 -6.5 28 28" xmlns="http://www.w3.org/2000/svg">
<style>
path { fill: #000000; }
@media (prefers-color-scheme: dark) { path { fill: #ffffff; } }
</style>
<path fill-rule="evenodd" clip-rule="evenodd" d="M12.8454 2.23917C11.485 0.857001 9.59259 0 7.5 0C3.35786 0 0 3.35786 0 7.5C0 11.6421 3.35786 15 7.5 15C9.50619 15 11.3284 14.2123 12.6742 12.9293C11.6202 11.4554 11 9.65014 11 7.7C11 5.64651 11.6877 3.75364 12.8454 2.23917Z"/>
<path d="M18.4363 0.428711H21.5795V15.0001H18.4363V0.428711Z"/>
<path d="M27.2939 6.14355L27.2939 9.28682L12.7225 9.28682L12.7225 6.14355L27.2939 6.14355Z"/>
<path d="M24.0486 1.45312L26.2712 3.67575L15.9677 13.9793L13.745 11.7567L24.0486 1.45312Z"/>
<path d="M26.2715 11.7568L24.0489 13.9795L13.7453 3.6759L15.9679 1.45328L26.2715 11.7568Z"/>
</svg>
